<?xml version="1.0" encoding="utf-8"?>
<!-- Generator: Adobe Illustrator 27.5.0, SVG Export Plug-In . SVG Version: 6.00 Build 0)  -->
<svg version="1.1" xmlns="http://www.w3.org/2000/svg" xmlns:xlink="http://www.w3.org/1999/xlink" x="0px" y="0px"
	 viewBox="0 0 1200 800" style="enable-background:new 0 0 1200 800;" xml:space="preserve">
<g id="Background">
	<rect style="fill:#F3FFFD;" width="1200" height="800"/>
</g>
<g id="Graphic_elements">
	<g>
		<defs>
			<rect id="SVGID_1_" width="1200" height="800"/>
		</defs>
		<clipPath id="SVGID_00000012437790504926551580000001968464610989170070_">
			<use xlink:href="#SVGID_1_"  style="overflow:visible;"/>
		</clipPath>
		<g style="clip-path:url(#SVGID_00000012437790504926551580000001968464610989170070_);">
			<path style="fill:#E2F7F4;" d="M68.606-40.957L-39.525-3.697c-0.32,12.718-0.669,25.434-1.064,38.149
				c-0.372,43.409-0.94,86.816-1.685,130.22L0,204.31C0,204.31,277.967,4.108,277.155,0S68.606-40.957,68.606-40.957z"/>
			<polygon style="fill:#CFF7F1;" points="795.928,659.813 753.735,865.604 1220.17,840.557 			"/>
			<path style="fill:#E2F7F4;" d="M285.858,884.339c3.746,0.099,7.491,0.217,11.237,0.343c74.018-0.868,148.034-1.875,222.049-2.934
				l4.547-21.963l-547.468-318.01l-13.001,338.84c69.447,0.792,138.886,2.347,208.308,4.38
				C209.624,883.658,247.753,883.338,285.858,884.339z"/>
			<path style="fill:#E2F7F4;" d="M1233.376-72.485c-43.804-0.958-87.648-0.411-131.456-0.337
				c-79.47,0.134-158.942,0.345-238.413,0.344c-44.529,0.894-89.053,1.524-133.579,2.023l-35.647,258.007L953.006-29.281
				l280.231-11.089C1233.258-51.075,1233.308-61.78,1233.376-72.485z"/>
			<g>
				<path style="fill:#66B3A1;" d="M-67.809,870.707c0.028,0.42,0.058,0.841,0.087,1.262l14.594,8.475
					c0.707,0.007,1.414,0.013,2.121,0.02L-67.809,870.707z"/>
				<path style="fill:#66B4A2;" d="M-34.186,880.646l-32.565-18.912l-0.519,0.893l30.986,17.995
					C-35.584,880.63-34.885,880.638-34.186,880.646z"/>
				<path style="fill:#67B5A3;" d="M-17.317,880.855l-47.68-27.69l-0.511,0.881l46.112,26.779
					C-18.703,880.835-18.01,880.846-17.317,880.855z"/>
				<path style="fill:#68B6A4;" d="M-0.398,881.093l-62.844-36.496l-0.503,0.867l61.301,35.6
					C-1.762,881.075-1.08,881.083-0.398,881.093z"/>
				<path style="fill:#68B6A5;" d="M16.581,881.368l-78.069-45.338l-0.496,0.854l76.543,44.452
					C15.233,881.346,15.907,881.357,16.581,881.368z"/>
				<path style="fill:#68B7A6;" d="M33.606,881.668l-93.339-54.206l-0.488,0.84l91.829,53.33
					C32.273,881.643,32.94,881.656,33.606,881.668z"/>
				<path style="fill:#69B8A7;" d="M50.672,881.992L-57.98,818.893l-0.48,0.827l107.158,62.231
					C49.356,881.964,50.014,881.979,50.672,881.992z"/>
				<path style="fill:#69B9A8;" d="M67.784,882.343l-124.009-72.018l-0.473,0.814L65.84,882.303
					C66.488,882.317,67.136,882.329,67.784,882.343z"/>
				<path style="fill:#6ABAA9;" d="M84.951,882.726l-139.423-80.969l-0.465,0.801l137.969,80.125
					C83.672,882.698,84.312,882.711,84.951,882.726z"/>
				<path style="fill:#6ABBAA;" d="M102.156,883.132L-52.717,793.19l-0.457,0.787l153.439,89.109
					C100.895,883.101,101.526,883.117,102.156,883.132z"/>
				<path style="fill:#6BBCAB;" d="M119.401,883.56l-170.364-98.938l-0.449,0.773l168.948,98.116
					C118.157,883.527,118.779,883.544,119.401,883.56z"/>
				<path style="fill:#6CBDAC;" d="M136.684,884.011L-49.209,776.054l-0.442,0.761L134.85,883.963
					C135.461,883.979,136.073,883.994,136.684,884.011z"/>
				<path style="fill:#6CBEAD;" d="M746.889,878.453l5.146-3.78l8.42,3.587c0.711-0.01,1.423-0.021,2.134-0.03l-10.442-4.449
					l-0.227-0.097l-6.52,4.789C745.897,878.467,746.393,878.46,746.889,878.453z"/>
				<path style="fill:#6CBEAD;" d="M154.018,884.49L-47.455,767.485l-0.434,0.748l200.1,116.207
					C152.814,884.457,153.416,884.473,154.018,884.49z"/>
				<path style="fill:#6DBFAE;" d="M736.764,878.597l17.027-12.507l27.863,11.871c0.699-0.01,1.397-0.02,2.096-0.03l-29.848-12.717
					l-0.223-0.095l-18.377,13.499C735.79,878.61,736.277,878.604,736.764,878.597z"/>
				<path style="fill:#6DBFAE;" d="M171.386,884.989L-45.7,758.918l-0.427,0.734l215.732,125.285
					C170.199,884.955,170.793,884.972,171.386,884.989z"/>
				<path style="fill:#6DC0AF;" d="M726.641,878.74l28.907-21.234l47.32,20.16c0.687-0.009,1.375-0.019,2.062-0.028l-49.274-20.993
					l-0.219-0.093l-30.233,22.208C725.684,878.753,726.163,878.747,726.641,878.74z"/>
				<path style="fill:#6DC0AF;" d="M187.06,884.505L-43.946,750.35l-0.419,0.721l229.843,133.481
					C186.005,884.537,186.533,884.52,187.06,884.505z"/>
				<path style="fill:#6EC1B0;" d="M716.516,878.884l40.789-29.962l66.793,28.457c0.674-0.009,1.348-0.018,2.022-0.027
					l-68.709-29.273l-0.215-0.092l-42.091,30.918C715.576,878.898,716.046,878.891,716.516,878.884z"/>
				<path style="fill:#6EC1B0;" d="M202.916,884.127L-42.192,741.782l-0.411,0.707l243.94,141.667
					C201.863,884.145,202.389,884.137,202.916,884.127z"/>
				<path style="fill:#6EC2B1;" d="M706.388,879.032l52.675-38.692l86.266,36.752c0.661-0.009,1.322-0.018,1.984-0.027
					l-88.145-37.553l-0.211-0.09l-53.951,39.63C705.466,879.045,705.927,879.038,706.388,879.032z"/>
				<path style="fill:#6EC2B1;" d="M219,883.881L-40.438,733.214l-0.403,0.694l258.271,149.99
					C217.953,883.892,218.476,883.887,219,883.881z"/>
				<path style="fill:#6EC2B2;" d="M696.259,879.179l64.561-47.423l105.743,45.051c0.65-0.008,1.301-0.016,1.951-0.024
					l-107.592-45.839l-0.207-0.088l-65.813,48.343C695.354,879.192,695.807,879.185,696.259,879.179z"/>
				<path style="fill:#6EC2B2;" d="M235.305,883.762L-38.683,724.645l-0.396,0.682L233.749,883.77
					C234.268,883.768,234.786,883.764,235.305,883.762z"/>
				<path style="fill:#6FC3B3;" d="M686.131,879.326l76.446-56.153l125.259,53.365c0.638-0.008,1.275-0.016,1.913-0.024
					l-127.071-54.138l-0.203-0.086L684.8,879.345C685.244,879.339,685.688,879.332,686.131,879.326z"/>
				<path style="fill:#6FC3B3;" d="M251.862,883.793L-36.929,716.078l-0.388,0.668l287.618,167.033
					C250.821,883.782,251.342,883.789,251.862,883.793z"/>
				<path style="fill:#70C4B4;" d="M676.003,879.473l88.331-64.884l144.773,61.679c0.626-0.008,1.252-0.016,1.878-0.024
					l-146.553-62.436l-0.199-0.084l-89.535,65.768C675.133,879.485,675.568,879.479,676.003,879.473z"/>
				<path style="fill:#70C4B4;" d="M268.705,883.987l-303.88-176.477l-0.38,0.654l302.712,175.799
					C267.673,883.97,268.189,883.978,268.705,883.987z"/>
				<path style="fill:#70C5B5;" d="M665.874,879.62l100.217-73.615L930.382,876c0.612-0.007,1.224-0.016,1.836-0.023
					l-166.225-70.819l-101.396,74.481C665.022,879.632,665.448,879.627,665.874,879.62z"/>
				<path style="fill:#70C5B5;" d="M285.817,884.339L-33.421,698.942l-0.373,0.641l318.075,184.721
					C284.794,884.317,285.305,884.325,285.817,884.339z"/>
				<path style="fill:#71C6B6;" d="M655.746,879.767l112.102-82.345l183.847,78.326c0.601-0.007,1.202-0.013,1.803-0.021
					l-185.556-79.054l-0.19-0.081l-113.257,83.193C654.912,879.779,655.329,879.773,655.746,879.767z"/>
				<path style="fill:#71C6B6;" d="M302.798,884.612L-31.667,690.374l-0.365,0.628L301.381,884.63
					C301.854,884.624,302.326,884.618,302.798,884.612z"/>
				<path style="fill:#71C7B7;" d="M645.617,879.915l123.987-91.076l203.421,86.666c0.588-0.007,1.177-0.014,1.765-0.02
					l-205.094-87.379l-0.187-0.079l-125.12,91.906C644.8,879.926,645.209,879.92,645.617,879.915z"/>
				<path style="fill:#71C7B7;" d="M318.968,884.417l-348.88-202.611l-0.357,0.615l347.85,202.013
					C318.043,884.428,318.506,884.422,318.968,884.417z"/>
				<path style="fill:#72C8B8;" d="M635.488,880.062l135.874-99.807l222.995,95.004c0.576-0.006,1.152-0.013,1.729-0.02
					l-224.633-95.702l-0.182-0.077L634.289,880.08C634.689,880.074,635.088,880.068,635.488,880.062z"/>
				<path style="fill:#72C8B8;" d="M335.139,884.221L-28.158,673.238l-0.35,0.602l362.289,210.398
					C334.234,884.232,334.686,884.227,335.139,884.221z"/>
				<path style="fill:#72C9B9;" d="M625.358,880.21l147.761-108.539l242.589,103.352c0.565-0.006,1.129-0.011,1.694-0.017
					L773.207,770.97l-0.178-0.076L624.186,880.227C624.576,880.221,624.967,880.216,625.358,880.21z"/>
				<path style="fill:#72C9B9;" d="M351.309,884.026L-26.404,664.669l-0.342,0.588l376.729,218.784
					C350.425,884.036,350.867,884.031,351.309,884.026z"/>
				<path style="fill:#73CABA;" d="M367.459,883.818L-24.65,656.102l-0.334,0.574l391.151,227.159
					C366.598,883.83,367.028,883.824,367.459,883.818z"/>
				<path style="fill:#73CABA;" d="M615.229,880.358l159.647-117.269l262.234,111.722c0.552-0.005,1.105-0.011,1.657-0.017
					L774.962,762.403l-0.174-0.074L614.083,880.375C614.465,880.369,614.847,880.363,615.229,880.358z"/>
				<path style="fill:#74CBBB;" d="M605.099,880.505l171.534-126l281.877,120.091c0.54-0.005,1.079-0.011,1.619-0.016
					L776.718,753.836l-0.17-0.072L603.98,880.522C604.353,880.517,604.726,880.511,605.099,880.505z"/>
				<path style="fill:#74CBBB;" d="M383.604,883.607L-22.896,647.533l-0.326,0.563l405.561,235.528
					C382.76,883.618,383.182,883.612,383.604,883.607z"/>
				<path style="fill:#74CCBC;" d="M594.97,880.653l183.42-134.732l301.523,128.461c0.527-0.005,1.055-0.011,1.583-0.016
					l-303.023-129.1l-0.166-0.07L593.877,880.669C594.242,880.664,594.606,880.659,594.97,880.653z"/>
				<path style="fill:#74CCBC;" d="M399.747,883.395L-21.142,638.965l-0.318,0.549l419.97,243.896
					C398.922,883.405,399.335,883.4,399.747,883.395z"/>
				<path style="fill:#75CDBD;" d="M415.889,883.182L-19.387,630.398l-0.311,0.535l434.382,252.265
					C415.086,883.193,415.488,883.188,415.889,883.182z"/>
				<path style="fill:#75CDBD;" d="M584.84,880.801l195.307-143.463l321.244,136.862c0.516-0.004,1.033-0.008,1.549-0.013
					L780.227,736.7l-0.162-0.068L583.773,880.817C584.129,880.812,584.484,880.807,584.84,880.801z"/>
				<path style="fill:#75CEBE;" d="M574.711,880.949l207.193-152.195l340.974,145.268c0.503-0.004,1.007-0.008,1.51-0.012
					L781.982,728.132l-0.158-0.067L573.67,880.964L574.711,880.949z"/>
				<path style="fill:#75CEBE;" d="M432.027,882.968L-17.633,621.83l-0.303,0.521l448.79,260.633
					C431.245,882.979,431.636,882.973,432.027,882.968z"/>
				<path style="fill:#76CFBF;" d="M564.584,881.095l219.077-160.924l360.703,153.674c0.491-0.004,0.982-0.008,1.474-0.012
					L783.737,719.565l-0.154-0.065l-220.011,161.61C563.91,881.105,564.247,881.1,564.584,881.095z"/>
				<path style="fill:#76CFBF;" d="M448.148,882.744L-15.878,613.261l-0.295,0.509l463.178,268.99
					C447.386,882.755,447.767,882.749,448.148,882.744z"/>
				<path style="fill:#76CFC0;" d="M464.27,882.52L-14.125,604.693l-0.288,0.496l477.569,277.346
					C463.528,882.53,463.899,882.525,464.27,882.52z"/>
				<path style="fill:#76CFC0;" d="M554.457,881.241l230.961-169.653l380.485,162.102c0.48-0.003,0.961-0.005,1.441-0.009
					L785.493,710.997l-0.15-0.063L553.47,881.255C553.799,881.25,554.128,881.246,554.457,881.241z"/>
				<path style="fill:#77D0C1;" d="M544.332,881.386l242.843-178.382l400.314,170.55c0.467-0.003,0.934-0.006,1.402-0.009
					L787.247,702.429l-0.146-0.062L543.37,881.4C543.691,881.396,544.011,881.391,544.332,881.386z"/>
				<path style="fill:#77D0C1;" d="M480.393,882.296L-12.37,596.126l-0.28,0.482l491.959,285.703
					C479.67,882.306,480.031,882.301,480.393,882.296z"/>
				<path style="fill:#77D1C2;" d="M496.514,882.072L-10.616,587.557l-0.273,0.469l506.349,294.06
					C495.812,882.082,496.163,882.077,496.514,882.072z"/>
				<path style="fill:#77D1C2;" d="M534.204,881.532l254.729-187.11l420.143,178.997c0.455-0.002,0.909-0.006,1.364-0.008
					L789.003,693.863l-0.143-0.061L533.27,881.545C533.581,881.541,533.892,881.537,534.204,881.532z"/>
				<path style="fill:#78D2C3;" d="M524.078,881.678l266.61-195.84l439.988,187.452c0.443-0.002,0.887-0.003,1.33-0.005
					l-441.25-187.99l-0.138-0.059L523.17,881.691C523.473,881.687,523.776,881.682,524.078,881.678z"/>
				<path style="fill:#78D2C3;" d="M512.627,881.842L-8.862,578.99l-0.265,0.455l520.73,302.412
					C511.945,881.852,512.286,881.847,512.627,881.842z"/>
				<path style="fill:#78D3C4;" d="M520.191,877.24l272.255-199.985l459.933,195.949c0.431-0.002,0.861-0.003,1.292-0.005
					L792.513,676.727l-0.134-0.057L520.158,876.628L-7.108,570.422l-0.257,0.442l527.411,306.29L520.191,877.24z"/>
				<path style="fill:#79D4C5;" d="M1259.877,866.527l-465.61-198.369l-0.13-0.055l-272.221,199.96L-5.354,561.853l-0.249,0.43
					l527.411,306.292l0.141,0.081L794.203,668.67l465.671,198.396C1259.875,866.886,1259.876,866.707,1259.877,866.527z"/>
				<path style="fill:#79D5C6;" d="M1259.952,857.243L796.023,659.592l-0.126-0.055L523.676,859.499L-3.6,553.286l-0.241,0.416
					L523.57,859.994l0.136,0.079L795.96,660.089l463.984,197.674C1259.946,857.589,1259.95,857.417,1259.952,857.243z"/>
			</g>
			<g>
				<path style="fill:#6ABAA9;" d="M736.878-70.537l-7.943,6.681l-18.248-6.393c-0.906,0.009-1.812,0.019-2.718,0.028l20.91,7.326
					l0.249,0.088l9.211-7.747C737.851-70.549,737.365-70.542,736.878-70.537z"/>
				<path style="fill:#6ABBAA;" d="M746.141-70.647l-18.395,15.472l-42.289-14.817c-0.894,0.009-1.788,0.017-2.682,0.025
					l44.915,15.737l0.245,0.086l19.642-16.52C747.097-70.659,746.619-70.653,746.141-70.647z"/>
				<path style="fill:#6BBCAB;" d="M755.403-70.757l-28.847,24.263l-66.385-23.259c-0.879,0.008-1.757,0.017-2.636,0.025
					l68.966,24.163l0.241,0.085l30.072-25.293C756.344-70.768,755.873-70.763,755.403-70.757z"/>
				<path style="fill:#6CBDAC;" d="M764.669-70.87l-39.303,33.057l-90.509-31.712c-0.865,0.008-1.73,0.016-2.595,0.023l93.05,32.602
					l0.237,0.083L766.06-70.89C765.596-70.884,765.133-70.876,764.669-70.87z"/>
				<path style="fill:#6CBEAD;" d="M773.953-70.999l-49.776,41.865L609.536-69.301c-0.85,0.008-1.701,0.015-2.551,0.023
					l117.138,41.041l0.233,0.081l50.962-42.862C774.863-71.012,774.408-71.005,773.953-70.999z"/>
				<path style="fill:#6DBFAE;" d="M783.237-71.128l-60.249,50.674L584.212-69.076c-0.569,0.005-1.138,0.01-1.708,0.015
					c-0.265,0.002-0.53,0.005-0.795,0.007l141.227,49.481l0.228,0.08l61.414-51.654C784.131-71.14,783.684-71.134,783.237-71.128z"
					/>
				<path style="fill:#6DC0AF;" d="M792.522-71.256l-70.723,59.483L558.891-68.851c-0.82,0.007-1.639,0.015-2.459,0.022
					l165.315,57.921l0.224,0.078l71.867-60.445C793.399-71.268,792.961-71.263,792.522-71.256z"/>
				<path style="fill:#6EC1B0;" d="M801.813-71.391L720.609-3.093L533.571-68.625c-0.804,0.007-1.607,0.014-2.411,0.021
					L720.779-2.167l82.33-69.245C802.677-71.406,802.245-71.398,801.813-71.391z"/>
				<path style="fill:#6EC2B1;" d="M811.123-71.543L719.42,5.587L508.25-68.4c-0.79,0.007-1.581,0.013-2.371,0.02L719.37,6.42
					l0.216,0.076l92.81-78.06C811.972-71.557,811.548-71.549,811.123-71.543z"/>
				<path style="fill:#6EC2B2;" d="M820.435-71.694L718.231,14.267L482.904-68.184c-0.776,0.007-1.552,0.013-2.329,0.02
					l237.606,83.249l0.212,0.074l103.29-86.874C821.268-71.708,820.852-71.701,820.435-71.694z"/>
				<path style="fill:#6FC3B3;" d="M829.747-71.846L717.041,22.948L457.558-67.967c-0.76,0.006-1.52,0.013-2.28,0.02L716.994,23.75
					l0.207,0.073l113.769-95.688C830.563-71.859,830.155-71.853,829.747-71.846z"/>
				<path style="fill:#6FC3B3;" d="M1233.339-66.666l-12.233-6.067c-0.598-0.009-1.195-0.019-1.792-0.027l14.02,6.953
					C1233.336-66.094,1233.338-66.38,1233.339-66.666z"/>
				<path style="fill:#70C4B4;" d="M1233.293-57.419l-31.33-15.538l-1.73-0.013l33.056,16.394
					C1233.291-56.857,1233.292-57.138,1233.293-57.419z"/>
				<path style="fill:#70C4B4;" d="M839.071-72.009L715.852,31.628L432.204-67.753c-0.747,0.006-1.493,0.012-2.24,0.018
					L715.805,32.414l0.204,0.071L840.275-72.032C839.874-72.025,839.472-72.016,839.071-72.009z"/>
				<path style="fill:#70C5B5;" d="M848.416-72.188L714.663,40.308L406.814-67.552c-0.73,0.006-1.461,0.012-2.192,0.018
					L714.618,41.078l0.2,0.07L849.596-72.21C849.202-72.203,848.809-72.195,848.416-72.188z"/>
				<path style="fill:#70C5B5;" d="M1233.252-48.168l-50.165-24.878l-1.675-0.003l51.839,25.708
					C1233.251-47.617,1233.251-47.893,1233.252-48.168z"/>
				<path style="fill:#71C6B6;" d="M857.761-72.367L713.474,48.989L381.426-67.35c-0.716,0.005-1.432,0.011-2.148,0.017
					L713.429,49.743l0.195,0.068l145.29-122.2C858.53-72.382,858.145-72.374,857.761-72.367z"/>
				<path style="fill:#71C6B6;" d="M1233.234-38.906l-68.836-34.139c-0.542,0.001-1.085,0.003-1.627,0.004l70.461,34.945
					C1233.233-38.366,1233.233-38.636,1233.234-38.906z"/>
				<path style="fill:#71C7B7;" d="M712.285,57.669L356.012-67.157c-0.703,0.005-1.405,0.01-2.108,0.015l358.336,125.55l0.191,0.066
					L868.123-72.474c-0.368,0-0.736,0-1.105,0L712.285,57.669z"/>
				<path style="fill:#71C7B7;" d="M1233.225-29.64l-87.402-43.346c-0.529,0.003-1.058,0.004-1.588,0.007l88.99,44.134
					C1233.226-29.11,1233.225-29.375,1233.225-29.64z"/>
				<path style="fill:#72C8B8;" d="M711.095,66.349L330.563-66.977c-0.687,0.005-1.374,0.01-2.062,0.015L711.052,67.071l0.188,0.065
					L877.233-72.477c-0.361,0-0.721,0-1.082,0.001L711.095,66.349z"/>
				<path style="fill:#72C8B8;" d="M1233.237-20.363l-105.946-52.543c-0.518,0.002-1.035,0.004-1.553,0.006l107.5,53.313
					C1233.238-19.845,1233.238-20.104,1233.237-20.363z"/>
				<path style="fill:#72C9B9;" d="M709.906,75.03L305.115-66.796c-0.672,0.004-1.345,0.01-2.017,0.014L709.864,75.736l0.183,0.063
					L886.344-72.479c-0.352,0.001-0.704,0.001-1.056,0.001L709.906,75.03z"/>
				<path style="fill:#72C9B9;" d="M1233.273-11.075l-124.539-61.764c-0.508,0.002-1.015,0.002-1.523,0.004l126.066,62.521
					C1233.276-10.567,1233.274-10.821,1233.273-11.075z"/>
				<path style="fill:#73CABA;" d="M708.717,83.711l-429.1-150.343c-0.659,0.004-1.318,0.008-1.977,0.012L708.676,84.4l0.179,0.063
					L895.456-72.483c-0.345,0.001-0.689,0.001-1.034,0.001L708.717,83.711z"/>
				<path style="fill:#73CABA;" d="M1233.322-1.78L1090.116-72.8c-0.497,0.001-0.995,0.001-1.492,0.002l144.703,71.764
					C1233.326-1.283,1233.324-1.531,1233.322-1.78z"/>
				<path style="fill:#74CBBB;" d="M707.527,92.39l-453.44-158.87c-0.644,0.003-1.288,0.007-1.931,0.011L707.487,93.065l0.175,0.062
					L904.574-72.491c-0.337,0-0.674,0-1.011,0.001L707.527,92.39z"/>
				<path style="fill:#74CBBB;" d="M1233.413,7.537L1071.49-72.767c-0.486,0.001-0.971,0.002-1.457,0.003L1233.42,8.265
					C1233.418,8.023,1233.416,7.78,1233.413,7.537z"/>
				<path style="fill:#74CCBC;" d="M706.338,101.07L228.559-66.327c-0.628,0.003-1.256,0.008-1.884,0.011l479.623,168.044
					l0.171,0.06L913.69-72.5c-0.329,0.001-0.657,0.001-0.986,0.001L706.338,101.07z"/>
				<path style="fill:#74CCBC;" d="M1233.521,16.861l-180.651-89.592c-0.474,0.001-0.948,0.002-1.421,0.003l182.084,90.302
					C1233.528,17.337,1233.524,17.099,1233.521,16.861z"/>
				<path style="fill:#75CDBD;" d="M705.149,109.751L202.953-66.202c-0.616,0.003-1.231,0.005-1.847,0.009L705.11,110.393
					l0.167,0.059l217.531-182.96c-0.321,0-0.641,0-0.962,0.001L705.149,109.751z"/>
				<path style="fill:#75CDBD;" d="M1233.664,26.203L1034.25-72.695c-0.463,0.001-0.925,0.002-1.388,0.003l200.813,99.591
					C1233.671,26.667,1233.668,26.435,1233.664,26.203z"/>
				<path style="fill:#75CEBE;" d="M703.959,118.431L177.327-66.084c-0.602,0.003-1.203,0.006-1.805,0.008l528.4,185.134
					l0.162,0.057L931.928-72.519c-0.313,0.001-0.627,0.001-0.94,0.002L703.959,118.431z"/>
				<path style="fill:#75CEBE;" d="M1233.844,35.563L1015.628-72.659c-0.451,0.001-0.902,0.002-1.353,0.002l219.584,108.9
					C1233.854,36.017,1233.849,35.79,1233.844,35.563z"/>
				<path style="fill:#76CFBF;" d="M702.77,127.111L151.698-65.966c-0.586,0.002-1.173,0.005-1.759,0.007l552.795,193.681
					l0.158,0.056L941.051-72.532l-0.915,0.002L702.77,127.111z"/>
				<path style="fill:#76CFBF;" d="M1234.046,44.933L997.007-72.623c-0.44,0.001-0.879,0.002-1.319,0.003l238.374,118.219
					C1234.056,45.376,1234.052,45.155,1234.046,44.933z"/>
				<path style="fill:#76CFC0;" d="M701.581,135.792L125.956-65.888c-0.573,0.002-1.146,0.003-1.719,0.005l577.308,202.27
					l0.154,0.054L950.174-72.545l-0.891,0.001L701.581,135.792z"/>
				<path style="fill:#76CFC0;" d="M1234.31,54.335L978.381-72.59c-0.428,0-0.857,0.001-1.285,0.002l257.232,127.572
					C1234.323,54.768,1234.317,54.551,1234.31,54.335z"/>
				<path style="fill:#77D0C1;" d="M1234.599,63.75L959.751-72.559c-0.441,0.001-0.882,0.001-1.322,0.002L700.392,144.472
					L100.208-65.812c-0.557,0.001-1.113,0.003-1.67,0.005l601.82,210.857l0.15,0.053L959-72.308l275.622,136.692
					C1234.615,64.172,1234.606,63.961,1234.599,63.75z"/>
				<path style="fill:#77D1C2;" d="M1234.94,73.189L957.89-64.21l-0.159-0.079L699.202,153.153L79.175-64.084l-0.179,0.512
					l620.173,217.288l0.146,0.051L957.808-63.645l277.154,137.451C1234.954,73.601,1234.948,73.395,1234.94,73.189z"/>
				<path style="fill:#78D2C3;" d="M1235.321,82.648L956.696-55.533l-0.155-0.076L698.013,161.833L77.981-55.407l-0.174,0.498
					L697.981,162.38l0.142,0.049L956.616-54.984l278.73,138.233C1235.337,83.049,1235.329,82.849,1235.321,82.648z"/>
				<path style="fill:#78D3C4;" d="M1235.76,92.137L955.501-46.854l-0.15-0.074l-258.528,217.44L76.787-46.727l-0.169,0.482
					l620.174,217.288l0.138,0.049L955.424-46.321l280.364,139.043C1235.778,92.528,1235.77,92.333,1235.76,92.137z"/>
				<path style="fill:#79D4C5;" d="M1236.256,101.655L954.307-38.175l-0.146-0.071L695.635,179.193L75.594-38.048l-0.164,0.469
					l620.174,217.288l0.133,0.047L954.232-37.659l282.054,139.882C1236.276,102.034,1236.266,101.844,1236.256,101.655z"/>
				<path style="fill:#79D5C6;" d="M1236.811,111.2L953.113-29.497l-0.141-0.069L694.445,187.874L74.401-29.369l-0.159,0.453
					l620.174,217.288l0.129,0.046L953.04-28.996l283.806,140.75C1236.834,111.569,1236.822,111.384,1236.811,111.2z"/>
			</g>
		</g>
	</g>
</g>
</svg>
